<?xml version="1.0" encoding="iso-8859-1"?>
<!-- Generator: Adobe Illustrator 19.0.0, SVG Export Plug-In . SVG Version: 6.00 Build 0)  -->
<svg version="1.1" id="Capa_1" xmlns="http://www.w3.org/2000/svg" xmlns:xlink="http://www.w3.org/1999/xlink" x="0px" y="0px"
	 viewBox="0 0 512 512" style="enable-background:new 0 0 512 512;" xml:space="preserve">
<path style="fill:#1D5C86;" d="M140.034,111.998V13.5c0-3.314,2.686-6,6-6h54.267c3.314,0,6,2.686,6,6v73.649L140.034,111.998z"/>
<g>
	<path style="fill:#2276BB;" d="M371.967,111.998V13.5c0-3.314-2.686-6-6-6h-54.267c-3.314,0-6,2.686-6,6v73.649L371.967,111.998z"
		/>
	<path style="fill:#2276BB;" d="M405.102,272.566h33.134c18.299,0,33.133,14.834,33.133,33.133v132.534
		c0,9.15-7.418,16.568-16.568,16.568h-49.7h-298.2h-49.7c-9.15,0-16.568-7.418-16.568-16.568V305.699
		c0-18.299,14.834-33.133,33.133-33.133H106.9H405.102z"/>
</g>
<path style="fill:#1D5C86;" d="M438.235,272.566h-20.001c18.299,0,33.133,14.834,33.133,33.133v132.534
	c0,9.15-7.418,16.568-16.568,16.568H454.8c9.15,0,16.568-7.418,16.568-16.568V305.699
	C471.368,287.4,456.534,272.566,438.235,272.566z"/>
<path style="fill:#FDBE40;" d="M454.8,454.801c9.15,0,16.568-7.418,16.568-16.568v-33.136H40.633v33.136
	c0,9.15,7.417,16.568,16.567,16.568h49.7h298.2L454.8,454.801L454.8,454.801z"/>
<rect x="86.9" y="272.57" style="fill:#1D5C86;" width="25.1" height="182.23"/>
<rect x="86.9" y="405.1" style="fill:#FFA912;" width="25.1" height="49.703"/>
<path style="fill:#2276BB;" d="M405.099,156.599c0-54.896-44.503-99.398-99.4-99.398h-99.4c-54.897,0-99.4,44.503-99.4,99.4
	l0.001,331.333c0,9.15,7.418,16.568,16.567,16.568h265.065c9.15,0,16.568-7.418,16.568-16.568L405.099,156.599z"/>
<g>
	<path style="fill:#1D5C86;" d="M405.099,156.599c0-54.896-44.503-99.398-99.4-99.398h-19.974c54.897,0,99.4,44.503,99.4,99.398
		l0.001,331.334c0,9.15-7.418,16.568-16.568,16.568h19.974c9.15,0,16.568-7.417,16.568-16.568L405.099,156.599z"/>
	<path style="fill:#1D5C86;" d="M140.034,289.134c0-9.15,7.418-16.568,16.568-16.568H355.4c9.15,0,16.568,7.417,16.568,16.568
		v115.965c0,9.15-7.418,16.568-16.568,16.568H156.602c-9.15,0-16.568-7.418-16.568-16.568L140.034,289.134L140.034,289.134z"/>
</g>
<g>
	<path style="fill:#FDBE40;" d="M260.243,105.701l38.373,38.373c2.343,2.343,2.343,6.142,0,8.485l-38.373,38.373
		c-2.343,2.343-6.142,2.343-8.485,0l-38.372-38.373c-2.343-2.343-2.343-6.142,0-8.485l38.372-38.373
		C254.102,103.358,257.9,103.358,260.243,105.701z"/>
	<path style="fill:#FDBE40;" d="M106.901,487.933c0,9.15,7.417,16.568,16.567,16.568h265.065c9.15,0,16.568-7.417,16.568-16.568
		v-33.132h-298.2V487.933z"/>
</g>
<g>
	<path style="fill:#FFA912;" d="M385.128,454.801v33.132c0,9.15-7.418,16.568-16.568,16.568h19.974
		c9.15,0,16.568-7.417,16.568-16.568v-33.132H385.128z"/>
	<path style="fill:#FFA912;" d="M451.367,405.097v33.136c0,9.15-7.418,16.568-16.568,16.568H454.8
		c9.15,0,16.568-7.418,16.568-16.568v-33.136H451.367z"/>
</g>
<path d="M156.602,429.167H355.4c13.271,0,24.067-10.797,24.067-24.068V289.134c0-13.271-10.797-24.067-24.067-24.067h-27.09
	c-4.143,0-7.5,3.358-7.5,7.5s3.357,7.5,7.5,7.5h27.09c5,0,9.067,4.067,9.067,9.067v25.631H147.534v-25.631
	c0-5,4.068-9.067,9.068-9.067h141.842c4.143,0,7.5-3.358,7.5-7.5s-3.357-7.5-7.5-7.5H156.602c-13.271,0-24.068,10.796-24.068,24.067
	v115.965C132.534,418.37,143.331,429.167,156.602,429.167z M173.952,329.765v9.068c0,4.142,3.357,7.5,7.5,7.5s7.5-3.358,7.5-7.5
	v-9.068h175.517v75.334c0,5-4.067,9.068-9.067,9.068h-198.8c-5,0-9.068-4.068-9.068-9.068v-75.334H173.952z"/>
<path d="M438.235,265.066H412.6l-0.001-108.467c0.001-28.553-11.119-55.398-31.309-75.588c-0.602-0.602-1.21-1.194-1.823-1.779V7.5
	c0-4.142-3.357-7.5-7.5-7.5h-66.267c-4.143,0-7.5,3.358-7.5,7.5v42.2h-84.4V7.5c0-4.142-3.357-7.5-7.5-7.5h-66.267
	c-4.143,0-7.5,3.358-7.5,7.5v71.801C112.13,98.78,99.4,126.231,99.4,156.6v108.466H73.765c-22.405,0-40.633,18.228-40.633,40.633
	l0.001,132.534c0,13.271,10.797,24.068,24.067,24.068h42.2v25.632c0,13.271,10.797,24.067,24.067,24.067h265.065
	c13.271,0,24.067-10.796,24.067-24.067v-25.632H454.8c13.271,0,24.067-10.797,24.067-24.068V305.699
	C478.868,283.294,460.641,265.066,438.235,265.066z M412.6,329.765h51.268V397.6h-51.267L412.6,329.765z M438.235,280.066
	c14.134,0,25.633,11.499,25.633,25.633v9.066H412.6v-34.699H438.235z M331.333,15v17.349c0,4.142,3.357,7.5,7.5,7.5
	s7.5-3.358,7.5-7.5V15h18.133v52.268c-15.245-10.073-32.796-16.034-51.267-17.306V15H331.333z M147.534,15h18.134v17.349
	c0,4.142,3.357,7.5,7.5,7.5s7.5-3.358,7.5-7.5V15h18.133v34.967c-18.844,1.313-36.355,7.53-51.267,17.382V15z M206.301,64.7h99.4
	c24.548,0,47.626,9.559,64.983,26.917c17.357,17.357,26.916,40.434,26.916,64.981l0.001,248.491c0,0.003,0,0.007,0,0.01
	s0,0.006,0,0.01V447.3H114.4v-42.199c0-0.002,0-0.003,0-0.005s0-0.003,0-0.005v-82.817c0-0.003,0.001-0.007,0.001-0.01
	s-0.001-0.006-0.001-0.01V156.599C114.4,105.926,155.627,64.7,206.301,64.7z M48.133,329.765H99.4v67.832H48.133V329.765z
	 M73.765,280.066H99.4v34.699H48.132v-9.066C48.132,291.565,59.631,280.066,73.765,280.066z M57.201,447.301
	c-5,0-9.067-4.068-9.067-9.068v-25.636h51.267v34.704L57.201,447.301L57.201,447.301z M388.534,497H123.468
	c-5,0-9.067-4.067-9.067-9.067v-25.632h283.2v25.632C397.602,492.933,393.534,497,388.534,497z M454.8,447.301h-42.199V412.6h51.267
	v25.633C463.868,443.233,459.8,447.301,454.8,447.301z"/>
<path d="M250.698,200.477c1.465,1.465,3.384,2.197,5.304,2.197c1.919,0,3.839-0.732,5.304-2.197l46.858-46.857
	c1.406-1.406,2.196-3.314,2.196-5.303s-0.79-3.897-2.196-5.303l-46.858-46.858c-1.407-1.407-3.314-2.197-5.304-2.197
	c-1.989,0-3.896,0.79-5.304,2.197l-46.857,46.858c-2.929,2.929-2.929,7.678,0,10.606L250.698,200.477z M256,112.065l36.252,36.251
	L256,184.568l-36.251-36.251L256,112.065z"/>
<path d="M263.5,164.883V131.75c0-4.142-3.357-7.5-7.5-7.5c-4.143,0-7.5,3.358-7.5,7.5v33.133c0,4.142,3.357,7.5,7.5,7.5
	C260.143,172.383,263.5,169.025,263.5,164.883z"/>
<g>
</g>
<g>
</g>
<g>
</g>
<g>
</g>
<g>
</g>
<g>
</g>
<g>
</g>
<g>
</g>
<g>
</g>
<g>
</g>
<g>
</g>
<g>
</g>
<g>
</g>
<g>
</g>
<g>
</g>
</svg>
