<svg height="512" viewBox="0 0 64 64" width="512" xmlns="http://www.w3.org/2000/svg"><g id="book-favortie-user_interface-notebook-star" data-name="book-favortie-user interface-notebook-star"><path d="m55 7v40a4 4 0 0 1 -4 4h-37a5 5 0 0 0 -5 5v-49a4 4 0 0 1 4-4h38a4 4 0 0 1 4 4z" fill="#2488ff"/><path d="m51.892 3.108a3.974 3.974 0 0 1 .108.892v18a26 26 0 0 1 -26 26h-13a4 4 0 0 0 -4 4v4a5 5 0 0 1 5-5h37a4 4 0 0 0 4-4v-40a3.994 3.994 0 0 0 -3.108-3.892z" fill="#006df0"/><path d="m51 51h-37a5 5 0 0 0 0 10h37a4 4 0 0 0 4-4v-10a4 4 0 0 1 -4 4z" fill="#ffcd00"/><path d="m41.233 27h-5.6a1 1 0 0 1 -.951-.691l-1.731-5.326a1 1 0 0 0 -1.9 0l-1.731 5.326a1 1 0 0 1 -.951.691h-5.6a1 1 0 0 0 -.588 1.809l4.529 3.291a1 1 0 0 1 .363 1.118l-1.73 5.326a1 1 0 0 0 1.538 1.118l4.531-3.292a1 1 0 0 1 1.176 0l4.531 3.292a1 1 0 0 0 1.538-1.118l-1.73-5.326a1 1 0 0 1 .363-1.118l4.531-3.292a1 1 0 0 0 -.588-1.808z" fill="#ff9811"/><path d="m20 15 5 4v-16h-10v16z" fill="#ed1c24"/><g fill="#231f20"><path d="m51 2h-38a5 5 0 0 0 -5 5v49a6 6 0 0 0 6 6h37a5 5 0 0 0 5-5v-50a5 5 0 0 0 -5-5zm-35 2h8v12.92l-3.38-2.7a.984.984 0 0 0 -1.24 0l-3.38 2.7zm38 48a3.009 3.009 0 0 1 -3 3h-32a1 1 0 0 0 0 2h32a4.924 4.924 0 0 0 3-1.03v1.03a3.009 3.009 0 0 1 -3 3h-37a4 4 0 0 1 0-8h37a4.985 4.985 0 0 0 3-1zm0-5a3.009 3.009 0 0 1 -3 3h-37a5.979 5.979 0 0 0 -4 1.54v-44.54a3.009 3.009 0 0 1 3-3h1v15a1 1 0 0 0 .57.9.981.981 0 0 0 1.05-.12l4.38-3.5 4.38 3.5a.961.961 0 0 0 .62.22.907.907 0 0 0 .43-.1 1 1 0 0 0 .57-.9v-15h25a3.009 3.009 0 0 1 3 3z"/><path d="m15 55h-2a1 1 0 0 0 0 2h2a1 1 0 0 0 0-2z"/><path d="m44 46h3a3 3 0 0 0 3-3v-3a1 1 0 0 0 -2 0v3a1 1 0 0 1 -1 1h-3a1 1 0 0 0 0 2z"/><path d="m21.591 29.618 4.531 3.292-1.73 5.326a2 2 0 0 0 3.077 2.236l4.531-3.292 4.531 3.292a1.971 1.971 0 0 0 2.351 0 1.97 1.97 0 0 0 .726-2.236l-1.73-5.326 4.531-3.292a2 2 0 0 0 -1.176-3.618h-5.6l-1.733-5.326a2 2 0 0 0 -3.8 0l-1.733 5.326h-5.6a2 2 0 0 0 -1.176 3.618zm6.776-1.618a2 2 0 0 0 1.9-1.382l1.733-5.338v.012l1.73 5.326a2 2 0 0 0 1.903 1.382h5.6l-4.533 3.292a2 2 0 0 0 -.726 2.236l1.731 5.326-4.532-3.292a2 2 0 0 0 -2.351 0l-4.53 3.292 1.73-5.327a2 2 0 0 0 -.726-2.235l-4.529-3.292z"/></g></g></svg>