<svg height="512pt" viewBox="-80 0 512 512" width="512pt" xmlns="http://www.w3.org/2000/svg"><path d="m336.332031 256c0-133.101562-71.933593-241-160.667969-241-88.730468 0-160.664062 107.898438-160.664062 241s71.933594 241 160.664062 241c88.734376 0 160.667969-107.898438 160.667969-241zm0 0" fill="#1fbf66"/><path d="m175.664062 15v482c88.734376 0 160.667969-107.898438 160.667969-241s-71.933593-241-160.667969-241zm0 0" fill="#00a03c"/><path d="m301.753906 77.265625c-33.214844-49.824219-77.996094-77.265625-126.089844-77.265625-.023437 0-.054687.00390625-.078124.00390625-.070313 0-.140626 0-.207032 0-47.984375.10937475-92.648437 27.53515575-125.804687 77.26171875-31.96875 47.957031-49.574219 111.429687-49.574219 178.734375 0 67.300781 17.605469 130.777344 49.578125 178.730469 33.21875 49.828125 77.996094 77.269531 126.085937 77.269531h.003907.003906.003906c48.089844-.003906 92.863281-27.441406 126.078125-77.269531 31.972656-47.953125 49.578125-111.429688 49.578125-178.730469 0-67.304688-17.605469-130.777344-49.578125-178.734375zm-216.761718 355.109375c6.511718 4.792969 13.285156 9.027344 20.277343 12.660156.492188.257813 1.003907.488282 1.519531.6875l8.867188 3.414063c.046875.019531.097656.039062.144531.054687.328125.125.640625.269532.960938.40625 1.066406.460938 2.53125 1.09375 4.28125 1.605469.355469.101563.714843.191406 1.074219.269531l4.144531.886719c2.402343.542969 4.828125 1.144531 7.207031 1.785156.957031.257813 1.9375.421875 2.925781.484375l7.457031.5c.207032.011719.402344.019532.609376.027344.191406.007812.746093.078125 1.152343.128906 1.203125.15625 2.789063.359375 4.65625.359375.933594 0 1.9375-.050781 3-.183593l5.472657-.492188 4.984374-.273438c.964844-.054687 1.925782-.199218 2.863282-.4375l4.414062-1.128906c4.566406-1.121094 7.152344-1.589844 7.242188-1.605468.089844-.015626.175781-.042969.265625-.058594.265625-.054688.53125-.117188.796875-.183594.25-.0625.5-.128906.742187-.203125.242188-.074219.480469-.152344.71875-.238281.265625-.097656.53125-.203125.789063-.3125.121094-.054688.246094-.089844.367187-.144532.027344-.015624 2.703125-1.234374 7.140625-2.957031l4.085938-1.523437c.871094-.328125 1.710937-.734375 2.507812-1.214844 1.398438-.847656 2.898438-1.757812 4.503906-2.734375l4.722657-2.640625c2.597656-1.328125 4.5625-2.984375 6.023437-4.214844.390625-.328125.925782-.777344 1.128906-.921875.125-.085937.246094-.175781.367188-.265625l5.914062-4.417968c.664063-.496094 1.28125-1.042969 1.855469-1.640626 1.800781-1.886718 3.601563-3.6875 5.347657-5.367187l2.960937-2.761719c.21875-.207031.429687-.417968.636719-.632812 1.132812-1.191406 2.027344-2.351563 2.75-3.285156.246094-.320313.488281-.644532.742187-.941407.078125-.09375.15625-.1875.234375-.285156 1.730469-2.164063 3.546875-4.324219 5.394532-6.417969.378906-.425781.730468-.875 1.058593-1.339844 8.222657-11.769531 15.554688-25.085937 21.195313-38.5.074218-.179687.148437-.359374.21875-.542968 4.933594-13.148438 8.828125-27.503906 11.570312-42.667969.074219-.429687.136719-.859375.175782-1.292969.320312-3.507812.644531-6.460937.984374-9.019531.015626-.109375.027344-.214844.039063-.320313.050781-.4375.117187-.859374.179687-1.277343.15625-1.039063.351563-2.332031.453126-3.832031.015624-.207032.027343-.414063.03125-.621094l.121093-4.46875c.09375-2.59375.242188-5.144532.441407-7.582032.050781-.621093.0625-1.25.035156-1.875l-.070313-1.550781c-.09375-2.117187-.183593-4.121093-.214843-5.90625-.003907-.191406-.007813-.382812-.019532-.574219-.027344-.472656-.015625-1.101562-.007812-1.828124.023437-1.628907.058594-3.835938-.304688-6.347657-.238281-1.894531-.441406-3.78125-.609375-5.617187-.148437-1.621094-.269531-3.246094-.359375-4.828125-.039062-.660157-.121094-1.320313-.246094-1.972657l-.210937-1.101562c-.230469-1.222656-.453125-2.367188-.65625-3.429688-.816406-4.539062-1.117187-7.105468-1.140625-7.285156-.019531-.191406-.0625-.371094-.089844-.554687-.039062-.289063-.078125-.574219-.136718-.863281-.050782-.25-.121094-.492188-.1875-.734376-.054688-.214843-.09375-.429687-.160157-.640624-.007812-.027344-.820312-2.6875-1.855469-7.03125l-.890624-4.023438c-.171876-.765625-.398438-1.515625-.6875-2.25-.515626-1.3125-1.023438-2.667969-1.503907-4.03125-.511719-1.460938-.957031-2.824219-1.359375-4.164062-.691406-2.535157-1.714844-4.53125-2.402344-5.875-.140624-.28125-.292968-.558594-.402343-.808594-.097657-.242188-.203125-.484375-.308594-.722656-.675781-1.464844-1.359375-3.171876-2.023437-4.820313-.34375-.859375-.765626-1.6875-1.265626-2.46875-.894531-1.40625-1.734374-2.828125-2.492187-4.226563l-1.328125-2.589843c-.152344-.296875-.3125-.585938-.480469-.871094-.800781-1.339844-1.613281-2.371094-2.148437-3.054687-.09375-.117188-.1875-.234376-.226563-.289063-.089843-.125-.175781-.246094-.265625-.367187-.925781-1.257813-1.796875-2.5625-2.664062-3.992188-.414063-.683594-.882813-1.339844-1.402344-1.949219-6.371094-7.496093-13.0625-13.667969-19.886719-18.335937-.394531-.269532-.800781-.519532-1.21875-.75-6.980469-3.855469-14.535156-6.429688-22.449219-7.648438-1.445312-.222656-2.914062-.234375-4.363281-.03125-.855469.117188-1.234375.136719-1.324219.121094-.9375-.09375-2.671874-.222656-4.785156.128906-.59375.097656-1.183594.230469-1.757812.398438l-1.492188.4375c-.011718.003906-.023437.007812-.035156.007812-2.089844.097656-4.136719.632813-6.011719 1.570313l-.109375.054687c-.476562.238282-1.125.5625-1.386718.675782-.265626.097656-.53125.207031-.789063.316406-6.324219 2.761718-10.796875 6.121094-13.007813 7.851562-4.542968 2.703125-7.519531 7.730469-7.332031 13.394532.183594 5.652343 3.554688 10.757812 8.683594 13.144531 3.855469 1.792969 9.890625 2.800781 16.734375-2.597657 1.320312-1.039062 3.5-2.753906 6.628906-4.167968.535156-.207032 1.050782-.429688 1.542969-.652344.859375-.144531 1.734375-.328125 2.628906-.554688.011719-.003906.023438-.007812.035157-.011718 1.066406.023437 2.183593-.023438 3.351562-.121094 3.542969.722656 6.9375 1.929688 10.117188 3.609375 4.140624 2.925781 8.484374 6.960937 12.644531 11.746094 1.09375 1.746093 2.234375 3.429687 3.40625 5.023437.363281.515625.746093 1.011719 1.136719 1.507813l.925781 1.8125c.054687.105469.109375.210937.167969.316406.894531 1.652344 1.859374 3.324219 2.882812 4.980469.59375 1.464844 1.242188 3.039062 1.957031 4.613281.5 1.203125 1.019531 2.214844 1.410157 2.976563.101562.199218.203124.394531.300781.59375.558593 1.871093 1.167969 3.75 1.867187 5.738281.464844 1.324219.953125 2.648437 1.449219 3.941406l.671875 3.023437c.015625.074219.03125.148438.050781.222657.839844 3.53125 1.5625 6.164062 1.992188 7.660156.203125 1.53125.59375 4.246094 1.277343 8.039063.015626.066406.027344.136718.039063.203124l.691406 3.601563c.101563 1.601563.226563 3.222656.375 4.828125.203125 2.21875.449219 4.507812.738281 6.800781.019532.140625.027344.214844.050782.351563.027344.265625.015625 1.066406.007812 1.648437-.015625 1-.035156 2.222657.03125 3.617188.042969 2.117187.136719 4.238281.238282 6.476562l.023437.601563c-.199219 2.609375-.347656 5.308594-.449219 8.039062 0 .050782 0 .101563-.003906.152344l-.109375 4.105469c-.035156.308593-.101563.765625-.171875 1.214843-.109375.742188-.21875 1.488282-.308594 2.253907-.363281 2.757812-.707031 5.847656-1.042968 9.414062-2.394532 13.054688-5.730469 25.351563-9.917969 36.566407-4.710938 11.144531-10.769531 22.1875-17.554688 32.003906-1.933593 2.207031-3.832031 4.472656-5.652343 6.746094-.46875.5625-.933594 1.15625-1.394532 1.753906-.203125.261718-.460937.59375-.621094.800781l-2.539062 2.371094c-.046875.042969-.09375.085937-.140625.128906-1.789063 1.71875-3.617187 3.539063-5.449219 5.429687l-4.769531 3.5625c-1.191406.851563-2.199219 1.699219-3.015625 2.386719-.269531.226563-.617188.519531-.847656.703125-.0625.035156-.121094.066406-.183594.101563l-5.285156 2.957031c-.15625.085938-.3125.179688-.46875.273438-1.21875.738281-2.378906 1.445312-3.480469 2.113281l-2.839844 1.058593c-.058593.023438-.117187.046876-.175781.066407-3.167969 1.230469-5.621094 2.261719-7.148438 2.921875-1.570312.316406-4.058593.851562-7.382812 1.667968-.035156.007813-.066406.015626-.101562.023438l-3.082032.789062-3.769531.207032c-.160156.011718-.320313.023437-.480469.035156l-6.105468.546875c-.039063.003906-.078126.007813-.117188.007813-.230469-.023438-.457031-.058594-.691406-.089844-.984375-.125-2.304688-.292969-3.835938-.351563l-5.777344-.386719c-2.339843-.613281-4.703124-1.1875-7.050781-1.71875-.0625-.015624-.128906-.027343-.191406-.042968l-3.304687-.703125c-.199219-.085938-.402344-.175781-.605469-.265625-.753907-.324219-1.515625-.648438-2.289063-.941406l-7.996094-3.082032c-11.019531-5.824218-21.828124-13.878906-31.320312-23.332031-10.019531-10.867187-19.742188-24.601563-28.148438-39.757813l-5.628906-11.949218c-.40625-.878906-.832031-1.746094-1.257812-2.609375-.488282-.996094-.953125-1.941407-1.304688-2.757813l-2.269531-6.074218c-.015625-.046876-.03125-.089844-.050781-.136719-1.546875-4.03125-3.054688-7.957031-4.515625-11.761719l-3.355469-11.480469c-.460938-1.683593-.941406-3.21875-1.40625-4.707031-.636719-2.027344-1.234375-3.941406-1.523438-5.476562-.019531-.109376-.042968-.226563-.066406-.339844l-2.285156-10.726563c-.007812-.035156-.015625-.070312-.023438-.105469l-1.980468-8.988281c-.390625-2.816406-.75-5.421875-1.085938-7.847656-1.097656-7.644531-1.847656-12.84375-2.15625-15 .089844-32.183594 4.519532-63.289063 12.875-91.78125l-1.4375 8.378906c-.117187.703125-.25 1.394531-.382812 2.078125-.273438 1.417969-.582032 3.023438-.808594 4.792969-.019531.160156-.039062.316406-.054688.480469l-.601562 6.285156c-.394531 3.953125-.820312 7.839844-1.269531 11.5625-.050781.445312-.085938.890625-.097657 1.335938l-.335937 11.214843c0 .09375-.003906.1875-.003906.28125-.011719 1.035157-.074219 2.148438-.144531 3.328125-.128907 2.28125-.277344 4.859375-.097657 7.714844l.351563 8.820312.1875 7.726563c.007812.449219.039062.898437.09375 1.347656.277344 2.433594.53125 4.664063.753906 6.625.832031 7.628907 1.167969 11.929688 1.171875 11.96875.007813.050781.015625.097657.019531.144531.023438.257813.0625.515626.097656.773438.035157.246094.066407.488281.113282.726562.011718.074219.015625.144532.03125.21875.007812.042969.894531 4.40625 2.125 11.554688l1.035156 6.230469c.082031.492187.1875.976562.316406 1.457031l1.863282 6.917969 1.878906 7.542969c.59375 2.679687 1.464844 5.015624 2.171875 6.90625.339843.90625.660156 1.765624.878906 2.476562.03125.101562.066406.199219.09375.296875l2.941406 8.835937c.175781.535157.386719 1.0625.621094 1.578126 1.371094 2.957031 2.585937 5.679687 3.707031 8.316406l1.863282 4.492187c.089843.214844.183593.429688.28125.640625.683593 1.453125 1.398437 2.695313 1.972656 3.691406.238281.414063.476562.824219.699218 1.246094.054688.097656.105469.199219.160157.296875 1.464843 2.640625 2.9375 5.417969 4.367187 8.261719.222656.445312.472656.882812.738282 1.304688 8.035156 12.632812 16.835937 23.515624 26.164062 32.34375.203125.195312.410156.382812.625.5625 9.414062 7.953124 19.757812 14.253906 30.746094 18.722656.84375.34375 1.714844.605468 2.605468.792968 2.042969.421876 3.730469.835938 5.148438 1.261719.15625.046875.308594.089844.464844.132813l.261718.085937c.894532.304688 2.390626.8125 4.273438 1.101563.476562.074218.957031.125 1.433594.152344l2.8125.171874c1.359375.113282 2.671875.285157 3.898437.515626.902344.164062 1.8125.25 2.730469.25.488281 0 .976562-.023438 1.464844-.074219l1.074218-.105469c1.238282-.125 2.414063-.246094 3.269532-.277344.234375-.007812.472656-.023437.707031-.042968l.15625.003906c1.511719.054687 4.25.140625 7.523437-.878906 1.003907-.277344 1.972657-.511719 2.898438-.699219.84375-.175781 1.667969-.3125 2.441406-.414063 1.410156-.179687 2.785156-.558594 4.089844-1.125l2.867188-1.242187c1.488281-.601563 2.523437-.949219 3.074218-1.121094 1.84375-.414063 3.636719-1.183594 5.28125-2.332031.015625-.011719 1.429688-.972656 3.753906-2.222656l2.570313-1.285157c1.164063-.582031 2.246094-1.3125 3.222656-2.175781.820313-.722656 1.628907-1.402344 2.421875-2.027344.742188-.589844 1.480469-1.132812 2.183594-1.613281 2.542969-1.605469 4.230469-3.546875 5.273438-4.746094.105468-.121093.210937-.246093.320312-.367187.195312-.183594.386719-.371094.574219-.5625.785156-.816406 1.691406-1.644532 2.886719-2.71875.847656-.761719 1.605468-1.617188 2.257812-2.554688.914062-1.308594 1.820312-2.511718 2.6875-3.578125.566406-.652343 1.144531-1.3125 1.722656-1.984375.238282-.277344.46875-.5625.6875-.855468.90625-1.214844 1.542969-2.339844 2.007813-3.160157.089843-.15625.175781-.3125.230469-.410156.089843-.132813.171874-.269531.257812-.410156.847656-1.410157 1.710938-2.707031 2.640625-3.964844.457031-.621094.863281-1.273437 1.222656-1.960937 4.757813-9.101563 8.628907-18.515626 11.503907-27.976563.078124-.261719.152343-.523437.21875-.789063 2.199218-8.988281 3.671874-18.671874 4.363281-28.777343.042969-.644531.046875-1.292969.003906-1.9375-.117187-1.953125-.164063-3.519531-.144531-4.789063.003906-.125.003906-.246094.003906-.367187l.011719-.285157c.035156-.714843.097656-1.914062-.011719-3.351562-.019531-.285156-.046875-.570312-.085938-.855469l-.339843-2.589843c-.128907-1.203126-.207031-2.292969-.222657-3.238282-.015624-1.019531-.136718-2.046875-.359374-3.042968-.3125-1.386719-.605469-2.695313-.753907-3.628907-.027343-.148437-.050781-.296875-.082031-.445312-1.671875-8.644531-3.742188-14.554688-4.734375-17.394531-.003906-.007813-.007813-.019532-.011719-.027344-1.601562-7.238282-8.351562-12.351563-15.941406-11.6875-4.613281.402344-8.804688 2.921875-11.316406 6.8125-4.042969 6.253906-1.941406 12.253906-1.046875 14.816406.8125 2.3125 2.3125 6.601562 3.5625 12.992188.210937 1.246093.472656 2.496093.742187 3.726562.0625 1.460938.1875 2.980469.371094 4.597656.007812.101563.019531.199219.035156.296875l.226563 1.726563c-.027344.53125-.042969 1.066406-.042969 1.625-.023438 1.769531.019531 3.675781.140625 5.917968-.585937 7.90625-1.730469 15.421876-3.40625 22.363282-2.195313 7.128906-5.21875 14.519531-8.78125 21.472656-1.175781 1.648438-2.308594 3.371094-3.378906 5.144531-.332031.527344-.65625 1.085938-.976563 1.652344-.003906.007813-.007812.015625-.011718.019531-.355469.410156-.707032.816406-1.058594 1.21875-.101563.113282-.195313.226563-.292969.34375-1.0625 1.292969-2.136719 2.6875-3.203125 4.164063-.898438.816406-1.878906 1.742187-2.878906 2.761719-.898438.851562-1.605469 1.65625-2.148438 2.28125-1.175781.816406-2.355468 1.695312-3.523437 2.617187-.695313.550781-1.402344 1.128906-2.113281 1.730469l-1.066407.53125c-.125.0625-.25.125-.375.191406-1.929687 1.03125-3.503906 1.960938-4.667969 2.683594-1.269531.417968-2.910156 1-4.921874 1.816406-.117188.046875-.230469.09375-.34375.144531l-1.226563.53125c-.804687.132813-1.609375.285157-2.417969.449219-1.328125.273438-2.699218.59375-4.089844.964844-.746093-.011719-1.71875-.011719-2.835937.085937-1.257813.0625-2.472656.171875-3.652344.289063-1.570312-.234375-3.183593-.421875-4.820312-.554688-.109375-.007812-.222657-.019531-.335938-.023437l-1.398437-.085938c-.40625-.132812-.894532-.285156-1.449219-.433593-1.808594-.535157-3.777344-1.035157-5.976563-1.519532-7.503906-3.191406-14.625-7.585937-21.191406-13.085937-7.179687-6.851563-14.34375-15.738281-20.769531-25.75-1.480469-2.917969-2.996094-5.78125-4.515625-8.519531-.371094-.699219-.761719-1.382813-1.15625-2.066407-.265625-.464843-.542969-.941406-.71875-1.28125l-1.714844-4.136719c-.019531-.042968-.035156-.085937-.054687-.125-1.152344-2.710937-2.382813-5.488281-3.753907-8.464843l-2.632812-7.921875c-.460938-1.464844-.949219-2.773438-1.382812-3.933594-.421876-1.128906-.855469-2.296875-.984376-2.898438-.039062-.179687-.078124-.359374-.125-.539062l-1.96875-7.90625c-.023437-.085938-.042968-.171875-.066406-.257812l-1.710937-6.359376-.933594-5.597656c-1.003906-5.839844-1.785156-9.90625-2.128906-11.636718-.144531-1.71875-.515625-5.839844-1.191407-12.0625-.210937-1.84375-.441406-3.863282-.691406-6.054688l-.175781-7.195312c0-.070313-.003906-.140626-.003906-.214844l-.363281-9.121094c-.007813-.144531-.015626-.289062-.023438-.433594-.074219-1.066406.007812-2.511718.105469-4.183594.078125-1.359374.164062-2.894531.1875-4.570312l.308593-10.410156c.441407-3.710938.863282-7.566406 1.261719-11.546875l.578125-6.058594c.109375-.796875.285156-1.707031.484375-2.75.175781-.910156.351563-1.824219.5-2.71875l2.203125-12.867187c4.160156-17.894532 9.914063-35.363282 16.648438-50.558594 7.324218-15.214844 16.507812-29.886719 26.589844-42.492188l7.871093-8.335937c.601563-.632813 1.199219-1.289063 1.792969-1.945313.523438-.578125 1.0625-1.175781 1.457031-1.566406 1.296875-1.089844 2.582031-2.171875 3.851563-3.234375.054687-.046875.113281-.097656.171875-.144531l7.480469-6.46875 7.128906-4.683594c1.300781-.808594 2.445312-1.613281 3.460937-2.328125.71875-.503906 1.691407-1.1875 2.105469-1.417969.175781-.074218.351562-.15625.523438-.238281l7.144531-3.429687c.054687-.023438.109375-.050782.164062-.078126l5.328125-2.644531 4.410156-1.371093c.0625-.019532.121094-.035157.179688-.058594l8.367188-2.703125c32.3125.765625 63.183593 18.167969 88.4375 49.578125-6.511719-4.792969-13.285157-9.023438-20.277344-12.660156-.496094-.257813-1.007813-.488282-1.53125-.6875l-8.863282-3.410157c-.03125-.015625-.066406-.027343-.101562-.039062-.328125-.125-.648438-.269531-.964844-.40625-1.082031-.46875-2.558594-1.109375-4.328125-1.625-.34375-.097657-.691406-.1875-1.039062-.261719-1.40625-.300781-2.796875-.601562-4.171875-.890625-2.523438-.570313-4.9375-1.167969-7.175782-1.777344-.960937-.261719-1.945312-.425781-2.9375-.492187l-7.496093-.496094c-.191407-.011719-.375-.023438-.570313-.027344-.191406-.007812-.746094-.078125-1.152344-.132812-1.808593-.230469-4.488281-.574219-7.671874-.171875l-5.460938.488281c-1.777344.097656-3.449219.1875-4.992188.273438-.96875.054687-1.925781.199218-2.863281.4375l-4.421875 1.132812c-4.566406 1.121094-7.15625 1.589844-7.246094 1.601562-.117187.023438-.230468.058594-.347656.082032-.277344.054687-.550781.117187-.828125.1875-.222656.058594-.445312.121094-.664062.191406-.25.074219-.5.160156-.746094.25-.238281.085938-.46875.179688-.699219.277344-.125.054687-.257812.09375-.382812.152344-.023438.011718-2.699219 1.230468-7.136719 2.949218l-4.070313 1.519532c-.890624.332031-1.746093.746093-2.558593 1.238281l-3.679688 2.234375-1.996093 1.152344c-1.121094.632812-2.292969 1.289062-3.507813 1.964843-2.597656 1.328125-4.5625 2.980469-6.027344 4.210938-.386719.328125-.917969.773437-1.121093.917969-.132813.09375-.269532.1875-.398438.289062l-5.890625 4.40625c-.664063.492188-1.285156 1.042969-1.859375 1.640625-1.824219 1.90625-3.625 3.710937-5.347656 5.359375l-2.960938 2.765625c-.222656.207031-.4375.421875-.648437.644531-1.125 1.1875-2.019531 2.34375-2.738281 3.277344-.25.320312-.492188.640625-.746094.941406-.078125.097656-.160156.191406-.238282.289063-1.710937 2.144531-3.527343 4.304687-5.394531 6.414062-.375.429688-.726562.875-1.054687 1.339844-8.230469 11.777344-15.5625 25.09375-21.199219 38.503906-.074219.179688-.144531.359375-.214844.542969-4.933593 13.144531-8.828125 27.5-11.570312 42.667969-.078125.429687-.136719.863281-.179688 1.300781-.3125 3.441406-.636719 6.390625-.984375 9.023438-.015625.101562-.023437.203124-.035156.308593-.050781.433594-.117188.859375-.179688 1.277344-.15625 1.039063-.351562 2.332031-.453124 3.832031-.015626.195313-.023438.394532-.03125.59375-.039063 1.382813-.074219 2.746094-.109376 4.09375l-.011718.40625c-.09375 2.59375-.246094 5.144532-.441406 7.585938-.050782.617187-.0625 1.238281-.035157 1.855468l.074219 1.722657c.09375 2.054687.179688 4 .207031 5.726562.003907.203125.011719.40625.023438.609375.023437.472656.015625 1.101563.003906 1.828125-.023437 1.621094-.054687 3.820313.308594 6.324219.234375 1.882812.4375 3.773438.605469 5.613281.148437 1.628907.273437 3.265625.367187 4.863281.039063.65625.117187 1.304688.242187 1.945313l.863282 4.515625c.847656 4.703125 1.144531 7.296875 1.144531 7.320312.027344.25.078125.496094.117187.742188.035157.203125.058594.410156.097657.613281.09375.460938.210937.914063.34375 1.359375.007812.019532.007812.042969.015625.066406.011718.027344.820312 2.679688 1.855468 7.023438l.894532 4.042969c.167968.75.394531 1.488281.675781 2.207031.554687 1.417969 1.050781 2.746094 1.511719 4.058594.507812 1.445312.957031 2.808594 1.363281 4.167968.691406 2.535157 1.714844 4.53125 2.402344 5.878907.144531.28125.296875.558593.40625.8125.09375.238281.195312.476562.304687.710937.664063 1.449219 1.324219 3.085938 2.019532 4.820313.34375.851562.761718 1.667969 1.25 2.441406.941406 1.480469 1.761718 2.875 2.511718 4.25l1.320313 2.582031c.160156.3125.328125.617188.507812.914063.785157 1.304687 1.578125 2.316406 2.101563 2.984375.09375.117187.1875.234375.226562.285156.097656.144531.199219.285156.304688.425781.921875 1.246094 1.78125 2.539063 2.636718 3.953125.417969.695313.894532 1.355469 1.421876 1.976563 6.375 7.5 13.066406 13.667969 19.886718 18.332031.390625.269531.800782.519531 1.21875.75 6.984375 3.855469 14.539063 6.429688 22.453125 7.648438.757813.113281 1.519531.171874 2.285157.171874.683593 0 1.371093-.046874 2.054687-.140624.835937-.113282 1.230469-.125 1.335937-.125.933594.097656 2.671876.222656 4.785157-.125.597656-.097657 1.183593-.230469 1.765625-.402344l1.484375-.4375c.011719-.003906.019531-.003906.027343-.003906 2.089844-.097657 4.136719-.628907 6.007813-1.566407l.253906-.125c.441407-.21875 1.039063-.519531 1.28125-.625.257813-.09375.511719-.195312.761719-.308593 6.328125-2.757813 10.804688-6.121094 13.011719-7.847657 4.535156-2.699219 7.507812-7.714843 7.332031-13.363281-.175781-5.660156-3.539062-10.777344-8.671875-13.167969-3.855469-1.796875-9.894531-2.808593-16.746094 2.589844-1.316406 1.035156-3.496093 2.757813-6.632812 4.164063-.539063.210937-1.050781.433593-1.542969.65625-.851562.144531-1.71875.328124-2.609375.550781-.015625.003906-.03125.011719-.050781.015625-1.066406-.015625-2.175782.023437-3.347656.121094-3.539063-.71875-6.9375-1.929688-10.121094-3.609376-4.132813-2.921874-8.476563-6.953124-12.640625-11.738281-1.085938-1.738281-2.222657-3.421875-3.398438-5.015625-.4375-.625-.84375-1.140625-1.148437-1.53125l-.929688-1.820312c-.050781-.097656-.105468-.195313-.15625-.296875-.894531-1.648438-1.84375-3.289063-2.886718-4.980469-.609376-1.507812-1.246094-3.050781-1.960938-4.625-.5-1.191406-1.015625-2.203125-1.402344-2.960938-.101562-.199218-.207031-.398437-.304687-.597656-.5625-1.890625-1.175781-3.765625-1.871094-5.746094-.457031-1.296874-.933594-2.59375-1.449219-3.9375l-.667968-3.015624c-.015626-.074219-.03125-.148438-.050782-.222657-.839844-3.539062-1.5625-6.175781-1.996094-7.671875-.203124-1.53125-.59375-4.246094-1.28125-8.042968-.011718-.058594-.019531-.121094-.03125-.183594l-.695312-3.628906c-.105469-1.59375-.230469-3.210938-.375-4.824219-.207031-2.234375-.453125-4.523438-.742188-6.796875-.015624-.136719-.027343-.207032-.046874-.34375-.027344-.261719-.015626-1.058594-.003907-1.636719.011719-1.003906.03125-2.230469-.035156-3.628906-.039063-2.070313-.132813-4.132813-.226563-6.316407l-.035156-.765624c.199219-2.609376.347656-5.308594.449219-8.035157 0-.050781.003906-.105469.003906-.15625l.109375-4.101562c.035156-.308594.105469-.769531.171875-1.21875.113281-.742188.222657-1.492188.3125-2.265625.371094-2.816406.710938-5.898438 1.039063-9.40625 2.394531-13.054688 5.734375-25.351563 9.921875-36.5625 4.703125-11.140625 10.761719-22.183594 17.550781-32.003906 1.949219-2.222657 3.851562-4.492188 5.65625-6.75.472656-.5625.933594-1.160157 1.398438-1.753907.199218-.261719.457031-.59375.621093-.800781l2.539063-2.371094c.039062-.039062.078125-.074218.113281-.109375 1.78125-1.703125 3.621094-3.53125 5.476563-5.445312l4.761718-3.5625c1.195313-.851563 2.203125-1.703125 3.023438-2.390625.269531-.226563.609375-.515625.839844-.699219.058593-.03125.117187-.0625.175781-.09375 1.347656-.75 2.644531-1.480469 3.882812-2.175781l1.417969-.792969c.148438-.085937.296875-.171875.445312-.261719l3.5-2.125 2.824219-1.050781c.0625-.023437.121094-.046875.183594-.070313 3.171875-1.226562 5.621094-2.257812 7.148437-2.917968 1.570313-.316406 4.0625-.851563 7.386719-1.671875.046875-.011719.09375-.023438.140625-.035157l3.042969-.777343c1.183594-.0625 2.433594-.132813 3.738281-.203125.183594-.007813.363282-.019532.542969-.039063l6.074219-.542969c.039062-.003906.078125-.007812.117187-.011718.230469.023437.457031.058594.691407.089844.984374.125 2.308593.296874 3.839843.355468l5.761719.382813c2.25.589843 4.617188 1.164062 7.050781 1.714843.066407.015626.132813.03125.199219.046876 1.09375.230468 2.195312.464843 3.308594.703124.207031.089844.414062.183594.625.273438.742187.320312 1.492187.640625 2.257812.929688l8.011719 3.082031c11.019531 5.828125 21.820313 13.878906 31.3125 23.335937 10.023437 10.863282 19.746094 24.597656 28.152344 39.757813l5.652343 11.992187c.402344.871094.824219 1.734375 1.246094 2.59375.484375.984375.945313 1.921875 1.296875 2.734375l2.265625 6.078125c.019532.046875.035156.09375.054688.136719 1.546875 4.023437 3.050781 7.945313 4.511718 11.746094l3.355469 11.484375c.460938 1.695312.945313 3.246094 1.414063 4.742187.632812 2.015625 1.226562 3.917969 1.511718 5.433594.023438.121094.046876.238281.070313.355469l4.296875 19.820312 3.234375 22.820313c-.089844 32.195312-4.515625 63.308593-12.875 91.8125l1.441406-8.402344c.117188-.707031.253907-1.398437.386719-2.089844.269531-1.40625.578125-3.003906.804688-4.765625.019531-.160156.035156-.320312.050781-.476562l.601562-6.300782c.382813-3.859374.8125-7.746093 1.269531-11.542968.054688-.449219.085938-.898438.101563-1.351563l.332031-11.210937c.003906-.089844.003906-.183594.003906-.277344.011719-1.035156.078126-2.152344.144532-3.335938.128906-2.277343.277344-4.851562.101562-7.699218l-.277344-6.867188-.261718-9.695312c-.011719-.445313-.042969-.894532-.09375-1.335938l-.757813-6.625c-.832031-7.632812-1.167969-11.933594-1.171875-11.976562-.003906-.046875-.011718-.09375-.015625-.140625-.027343-.292969-.070312-.582031-.113281-.875-.03125-.21875-.058594-.441407-.101562-.660157-.011719-.0625-.015626-.125-.027344-.1875-.011719-.042968-.898438-4.402343-2.125-11.546874l-1.035156-6.230469c-.082032-.492188-.1875-.980469-.316407-1.464844l-1.867187-6.917969-1.875-7.539062c-.59375-2.675782-1.464844-5.007813-2.167969-6.894532-.339844-.90625-.660156-1.765624-.882813-2.480468-.03125-.101563-.0625-.203125-.097656-.304688l-2.941406-8.847656c-.179688-.535156-.386719-1.0625-.625-1.574219-1.34375-2.898437-2.554688-5.617187-3.699219-8.316406l-1.867187-4.492187c-.085938-.203126-.171875-.402344-.265625-.601563-.691407-1.472656-1.410157-2.726563-1.988281-3.734375-.234376-.40625-.472657-.8125-.691407-1.230469-.054687-.101562-.109375-.203125-.164062-.304687-1.449219-2.601563-2.917969-5.382813-4.367188-8.261719-.222656-.445313-.472656-.878906-.738281-1.300781-8.035156-12.636719-16.839844-23.523438-26.164062-32.34375-.203126-.195313-.414063-.382813-.628907-.566406-9.414062-7.953126-19.757812-14.253907-30.742187-18.71875-.84375-.34375-1.722656-.613282-2.617188-.796876-2.015625-.414062-3.703125-.828124-5.167968-1.265624-.136719-.039063-.269532-.078126-.402344-.113282l-.269532-.089844c-.90625-.308593-2.433593-.824218-4.355468-1.117187-.429688-.0625-.859375-.109375-1.292969-.136719l-2.886719-.175781c-1.355468-.117187-2.671875-.292969-3.925781-.519531-1.386719-.257813-2.800781-.3125-4.207031-.175782l-.828125.085938c-1.3125.132812-2.554688.261719-3.464844.296875-.242187.007813-.488281.019531-.730469.042969l-.148437-.003906c-1.511719-.046876-4.253907-.140626-7.527344.882812-1.023437.277344-1.988281.515625-2.878906.695312-.871094.179688-1.691407.316407-2.433594.410157-1.40625.175781-2.78125.554687-4.082031 1.117187l-2.890625 1.25c-1.644531.660156-2.742188 1.019532-3.246094 1.175782-1.78125.421874-3.519531 1.167968-5.117187 2.277343-.011719.011719-1.429688.976563-3.753907 2.230469l-2.5625 1.277344c-1.167969.582031-2.25 1.3125-3.230469 2.175781-.847656.746094-1.636718 1.410156-2.40625 2.019531-.753906.597656-1.5 1.148438-2.222656 1.644532-2.53125 1.601562-4.214844 3.539062-5.253906 4.734374-.109375.125-.21875.253907-.328125.375-.183594.171876-.363281.347657-.539063.527344-.847656.882813-1.902343 1.832032-2.917968 2.75-.84375.757813-1.597656 1.609375-2.246094 2.539063-.921875 1.316406-1.832031 2.527343-2.703125 3.597656l-1.703125 1.960937c-.25.285157-.484375.582032-.710938.882813-.894531 1.207031-1.53125 2.328125-1.992187 3.144531-.09375.164063-.183594.328125-.253906.441406-.078125.121094-.152344.246094-.230469.371094-.835938 1.394532-1.730469 2.734375-2.652344 3.988282-.453125.613281-.855468 1.261718-1.207031 1.9375-4.761719 9.09375-8.632813 18.511718-11.511719 27.984374-.078125.261719-.152344.523438-.214844.789063-2.207031 9.003906-3.675781 18.6875-4.367187 28.78125-.042969.644531-.042969 1.289063-.003906 1.933594.117187 1.953125.164062 3.515625.140625 4.78125v.382812l-.011719.28125c-.035156.710938-.09375 1.898438.007813 3.332031.019531.289063.050781.578126.085937.867188l.34375 2.605469c.128906 1.175781.203125 2.261719.21875 3.226562.019531 1.023438.160156 2.136719.382813 3.132813.300781 1.351562.589843 2.625.730468 3.519531.027344.15625.054688.3125.082032.464844 1.679687 8.640625 3.746093 14.546875 4.738281 17.390625.003906.007812.007812.019531.011719.027344 1.503906 6.808593 7.578124 11.746093 14.628906 11.746093.402344 0 .808594-.019531 1.21875-.050781 4.636718-.371094 8.851562-2.886719 11.386718-6.78125 4.078126-6.265625 1.972657-12.285156 1.070313-14.855469-.808594-2.316406-2.3125-6.601562-3.5625-12.984375-.207031-1.242187-.464844-2.480468-.742187-3.730468-.066407-1.480469-.191407-3.023438-.371094-4.613282-.007813-.078125-.019532-.160156-.027344-.238281l-.230469-1.761719c.019531-.421875.042969-.984375.039063-1.636718.027344-1.769532-.015625-3.675782-.136719-5.914063.582031-7.890625 1.726563-15.40625 3.40625-22.363281 2.195313-7.136719 5.222656-14.53125 8.785156-21.472656 1.175781-1.652344 2.308594-3.378907 3.378907-5.148438.320312-.519531.644531-1.070312.957031-1.621094.007812-.015625.015625-.027344.019531-.039062l1.074219-1.234375c.09375-.109375.1875-.21875.277343-.332031 1.082032-1.3125 2.140626-2.6875 3.214844-4.167969.894532-.820313 1.878906-1.742188 2.863282-2.75.90625-.855469 1.617187-1.664063 2.164062-2.296875 1.167969-.8125 2.351562-1.6875 3.527344-2.617188.699218-.554687 1.398437-1.125 2.101562-1.722656l1.074219-.535156c.125-.0625.25-.128906.375-.191406 1.925781-1.03125 3.503906-1.964844 4.671875-2.6875 1.261719-.414063 2.898438-.996094 4.90625-1.8125.09375-.035157.1875-.074219.277344-.113282l1.292968-.558594c.789063-.132812 1.597657-.28125 2.410157-.449218 1.316406-.269532 2.695312-.59375 4.109375-.96875.742187.015625 1.707031.015625 2.824218-.085938 1.257813-.0625 2.476563-.167968 3.664063-.285156 1.574219.234375 3.179687.421875 4.796875.554688.105469.007812.214844.015624.324219.023437l1.429687.085937c.40625.132813.898438.289063 1.453125.4375 1.832031.539063 3.796875 1.035157 5.972657 1.515626 7.5 3.1875 14.621093 7.585937 21.1875 13.085937 7.179687 6.851563 14.347656 15.734375 20.769531 25.75 1.496093 2.949219 3.015625 5.808594 4.515625 8.515625.371094.691406.757812 1.375 1.148437 2.054688.269531.46875.546875.953124.722657 1.285156l1.726562 4.160156c.015625.035156.03125.070312.042969.101562 1.179687 2.769532 2.410156 5.550782 3.757812 8.476563l2.632813 7.914063c.460937 1.476562.953125 2.789062 1.390625 3.957031.417969 1.121093.851562 2.285156.976562 2.878906.039063.179687.078125.355469.121094.53125l1.972656 7.914063c.023438.089843.046875.179687.070313.269531l1.710937 6.355469.929688 5.59375c1.003906 5.839843 1.789062 9.902343 2.128906 11.632812.144531 1.722656.515625 5.847656 1.195313 12.078125l.6875 6.039063.171874 7.1875c.003907.074218.003907.148437.007813.226562l.367187 9.128906c.003907.140625.011719.277344.019532.414063.074218 1.074219-.011719 2.523437-.105469 4.199219-.078125 1.359374-.164063 2.894531-.1875 4.5625l-.308594 10.410156c-.453125 3.789062-.875 7.648437-1.257812 11.535156l-.582031 6.074219c-.109376.789062-.28125 1.691406-.480469 2.71875-.179688.925781-.355469 1.855469-.503907 2.746093l-2.203124 12.863282c-4.15625 17.898437-9.914063 35.367187-16.652344 50.566406-7.3125 15.199219-16.496094 29.875-26.585938 42.488281l-7.867187 8.335938c-.605469.632812-1.199219 1.289062-1.792969 1.945312-.523438.578125-1.0625 1.175781-1.457031 1.566407l-3.859375 3.246093c-.054688.042969-.105469.085938-.15625.128907l-7.492188 6.472656-7.125 4.691406c-1.300781.804688-2.445312 1.609375-3.464844 2.324219-.714843.503906-1.6875 1.1875-2.101562 1.417969-.175781.074218-.347656.152343-.519531.234374-2.515625 1.207032-4.902344 2.355469-7.140625 3.425782-.0625.027344-.121094.058594-.183594.089844l-5.316406 2.636718-4.429688 1.378906c-.054687.015626-.105468.03125-.160156.050782l-8.371094 2.707031c-32.324218-.765625-63.195312-18.164063-88.449218-49.578125zm0 0" fill="#7fe881"/><g fill="#1fbf66"><path d="m301.753906 77.265625c-33.214844-49.824219-77.996094-77.265625-126.089844-77.265625v30.765625l2.234376-.722656c32.3125.765625 63.1875 18.167969 88.441406 49.578125-6.511719-4.792969-13.285156-9.023438-20.277344-12.660156-.5-.257813-1.011719-.488282-1.53125-.6875l-8.863281-3.410157c-.035157-.015625-.066407-.027343-.101563-.039062-.328125-.125-.648437-.269531-.96875-.40625-1.078125-.46875-2.558594-1.109375-4.328125-1.625-.34375-.097657-.6875-.1875-1.035156-.261719-1.410156-.300781-2.800781-.601562-4.175781-.890625-2.519532-.570313-4.933594-1.167969-7.175782-1.777344-.957031-.261719-1.941406-.425781-2.933593-.492187l-7.496094-.496094c-.195313-.011719-.378906-.023438-.570313-.027344-.191406-.007812-.75-.078125-1.15625-.132812-1.808593-.230469-4.488281-.574219-7.667968-.171875l-5.464844.488281c-1.777344.097656-3.445312.1875-4.992188.273438-.964843.054687-1.921874.199218-2.859374.4375l-4.425782 1.132812c-1.910156.46875-3.472656.820312-4.652344 1.078125v31.578125c1.902344-.765625 3.429688-1.410156 4.496094-1.871094 1.570313-.316406 4.0625-.851562 7.386719-1.671875.046875-.011719.09375-.019531.140625-.035156l3.042969-.773437c1.183593-.066407 2.433593-.132813 3.738281-.203126.183594-.011718.363281-.023437.542969-.039062l6.074219-.546875c.039062-.003906.078124-.007813.117187-.011719.230469.023438.457031.058594.691406.089844.984375.128906 2.308594.296875 3.839844.355469l5.761719.382812c2.25.589844 4.617187 1.167969 7.050781 1.71875.066406.015625.132813.027344.199219.042969 1.09375.230469 2.195312.464844 3.308594.707031.207031.085938.414062.179688.625.269531.742187.320313 1.492187.640626 2.257812.929688l8.011719 3.085938c11.019531 5.824218 21.820312 13.878906 31.3125 23.332031 10.023437 10.863281 19.746093 24.597656 28.152343 39.757812l5.652344 11.992188c.402344.875.824219 1.734375 1.246094 2.59375.484375.984375.945312 1.921875 1.296875 2.734375l2.265625 6.078125c.019531.046875.035156.09375.054688.140625 1.546874 4.023437 3.050781 7.941406 4.511718 11.746094l3.355469 11.484374c.460937 1.695313.945313 3.242188 1.414063 4.742188.632812 2.011719 1.226562 3.914062 1.511718 5.433594.023438.117187.046875.234375.070313.351562l4.296875 19.824219 3.234375 22.816406c-.089844 32.195313-4.515625 63.3125-12.875 91.8125l1.441406-8.398437c.117187-.710938.253906-1.402344.386719-2.089844.269531-1.410156.578125-3.007812.804687-4.769531.019531-.160157.035157-.316407.050781-.476563l.601563-6.300781c.382813-3.859375.8125-7.742187 1.269531-11.539063.054688-.449218.085938-.902343.101563-1.355468l.332031-11.207032c.003906-.09375.003906-.1875.003906-.28125.011719-1.035156.078125-2.152343.144532-3.332031.128906-2.28125.277343-4.855469.101562-7.703125l-.277344-6.863281-.261718-9.699219c-.011719-.445312-.042969-.890625-.09375-1.335937l-.757813-6.625c-.832031-7.632813-1.167969-11.933594-1.171875-11.976563-.003906-.046875-.011719-.09375-.015625-.140625-.027344-.289062-.070313-.578125-.113281-.871093-.03125-.222657-.058594-.445313-.101563-.664063-.011719-.0625-.015625-.125-.027343-.1875-.011719-.042969-.898438-4.402344-2.125-11.546875l-1.035157-6.226562c-.082031-.496094-.1875-.984376-.316406-1.46875l-1.867187-6.917969-1.875-7.535157c-.59375-2.675781-1.464844-5.007812-2.167969-6.898437-.339844-.90625-.660157-1.765625-.882813-2.480469-.03125-.101562-.0625-.203125-.097656-.304687l-2.941406-8.84375c-.179688-.539063-.386719-1.066407-.625-1.578125-1.34375-2.898438-2.554688-5.617188-3.699219-8.3125l-1.867187-4.492188c-.085938-.203125-.171876-.40625-.265626-.605468-.691406-1.472657-1.410156-2.726563-1.988281-3.734376-.234375-.40625-.472656-.8125-.691406-1.230468-.054687-.101563-.109375-.203125-.164063-.304688-1.449218-2.601562-2.917968-5.378906-4.367187-8.261718-.226563-.445313-.472656-.878907-.738281-1.300782-8.035156-12.636718-16.839844-23.519531-26.164063-32.34375-.203125-.195312-.414062-.382812-.628906-.566406-9.414063-7.953125-19.757813-14.25-30.742187-18.71875-.84375-.34375-1.722657-.609375-2.617188-.796875-2.015625-.414063-3.703125-.828125-5.171875-1.265625-.132813-.039062-.265625-.074219-.398437-.113281l-.269532-.085938c-.90625-.3125-2.433594-.828125-4.355468-1.117187-.429688-.066406-.859376-.113282-1.292969-.140625l-2.886719-.175781c-1.355469-.113282-2.671875-.292969-3.925781-.519532-1.386719-.257812-2.800781-.3125-4.207031-.171875l-.828126.082031c-1.3125.136719-2.554687.261719-3.464843.296876-.246094.007812-.488281.023437-.730469.042968l-.148438-.003906c-1.511718-.042969-4.253906-.136719-7.527343.882812-1.023438.28125-1.988281.515626-2.878907.695313-.871093.179687-1.691406.316406-2.433593.410156-1.40625.179688-2.78125.554688-4.082031 1.117188l-2.722657 1.179687v33.226563c.078125-.066407.152344-.125.230469-.191407l1.074219-.535156c.125-.0625.25-.125.375-.191406 1.925781-1.03125 3.503906-1.964844 4.671875-2.6875 1.261718-.414062 2.898437-.992188 4.90625-1.8125.09375-.035156.1875-.074219.277344-.113281l1.292968-.558594c.789063-.132813 1.597656-.28125 2.410156-.449219 1.316407-.265625 2.695313-.59375 4.109376-.96875.742187.015625 1.707031.015625 2.824218-.085937 1.257813-.0625 2.476563-.167969 3.664063-.285157 1.574219.234376 3.179687.421876 4.796875.554688.105468.007812.214844.015625.324218.023438l1.429688.085937c.40625.132813.898438.289063 1.453125.4375 1.832031.539063 3.796875 1.035156 5.972656 1.515625 7.5 3.1875 14.621094 7.585938 21.1875 13.085938 7.179688 6.851562 14.347657 15.734374 20.769531 25.75 1.496094 2.949218 3.015626 5.808593 4.515626 8.515624.367187.691407.757812 1.375 1.148437 2.054688.269531.46875.546875.953125.71875 1.285156l1.730469 4.160156c.015625.035157.03125.070313.042968.101563 1.179688 2.769531 2.410157 5.550781 3.757813 8.476563l2.632813 7.914062c.460937 1.476562.953124 2.789062 1.390624 3.957031.417969 1.121094.851563 2.285157.976563 2.878907.039063.179687.078125.355468.121094.53125l1.972656 7.914062c.023437.089844.046875.179688.070313.269531l1.710937 6.355469.929687 5.59375c1.003907 5.839844 1.789063 9.902344 2.128907 11.632812.144531 1.722657.515625 5.847657 1.195312 12.078126l.6875 6.039062.171875 7.1875c.003906.074219.003906.148438.007813.226562l.367187 9.128907c.003906.140625.011719.277343.019532.414062.074218 1.074219-.011719 2.523438-.105469 4.199219-.078125 1.359375-.164063 2.894531-.1875 4.5625l-.308594 10.410156c-.453125 3.789063-.875 7.648438-1.257813 11.535156l-.582031 6.074219c-.109375.789063-.28125 1.691407-.480469 2.71875-.179687.925781-.355468 1.855469-.503906 2.746094l-2.203125 12.867187c-4.160156 17.894532-9.914062 35.363282-16.652343 50.5625-7.3125 15.199219-16.496094 29.875-26.585938 42.488282l-7.867188 8.335937c-.605468.632813-1.199218 1.289063-1.792968 1.945313-.523438.578125-1.0625 1.175781-1.457032 1.566406l-3.859374 3.246094c-.054688.042968-.105469.085937-.15625.128906l-7.492188 6.476562-7.125 4.6875c-1.300781.804688-2.445312 1.609376-3.464844 2.324219-.714844.503907-1.6875 1.191407-2.101562 1.417969-.175782.074219-.347656.152344-.519532.234375-2.515624 1.207031-4.902343 2.355469-7.140624 3.425781-.0625.027344-.121094.058594-.183594.089844l-5.316406 2.636719-4.429688 1.378906c-.054688.015625-.105469.03125-.160156.050781l-6.136719 1.984375v30.761719h-.007813.003907.003906.003906c48.089844-.003906 92.863281-27.441406 126.078125-77.269531 31.972656-47.953125 49.578125-111.429688 49.578125-178.730469 0-67.304688-17.605469-130.777344-49.578125-178.734375zm0 0"/><path d="m190.65625 315.785156c-.175781-5.65625-3.539062-10.773437-8.671875-13.167968-1.714844-.796876-3.863281-1.4375-6.320313-1.433594v33.121094c3.527344-2.003907 6.140626-3.96875 7.660157-5.15625 4.535156-2.699219 7.507812-7.714844 7.332031-13.363282zm0 0"/><path d="m178.914062 391.171875c1.84375-.414063 3.640626-1.183594 5.285157-2.332031.015625-.011719 1.429687-.972656 3.75-2.222656l2.570312-1.285157c1.164063-.582031 2.25-1.3125 3.226563-2.175781.816406-.722656 1.628906-1.402344 2.417968-2.027344.746094-.589844 1.480469-1.132812 2.1875-1.613281 2.542969-1.605469 4.230469-3.546875 5.269532-4.746094.109375-.121093.214844-.246093.324218-.367187.195313-.183594.386719-.371094.570313-.5625.785156-.816406 1.691406-1.644532 2.886719-2.71875.847656-.761719 1.605468-1.617188 2.257812-2.554688.917969-1.308594 1.820313-2.511718 2.691406-3.578125.566407-.652343 1.140626-1.3125 1.722657-1.984375.238281-.277344.46875-.5625.683593-.855468.90625-1.214844 1.542969-2.339844 2.007813-3.160157.089844-.15625.175781-.3125.234375-.410156.085938-.132813.171875-.269531.253906-.410156.847656-1.410157 1.710938-2.707031 2.640625-3.964844.457031-.621094.867188-1.273437 1.222657-1.960937 4.761718-9.101563 8.628906-18.515626 11.503906-27.976563.082031-.261719.152344-.523437.21875-.789063 2.203125-8.988281 3.671875-18.671874 4.363281-28.777343.042969-.644531.046875-1.292969.007813-1.9375-.117188-1.953125-.164063-3.519531-.144532-4.789063.003906-.125.003906-.246094 0-.367187l.015625-.285157c.035157-.714843.09375-1.914062-.011719-3.351562-.019531-.285156-.050781-.570312-.085937-.855469l-.339844-2.589843c-.132812-1.203126-.207031-2.292969-.222656-3.238282-.015625-1.019531-.140625-2.046875-.363281-3.042968-.308594-1.386719-.601563-2.695313-.753906-3.628907-.023438-.148437-.050782-.296875-.078126-.445312-1.675781-8.644531-3.746093-14.554688-4.738281-17.394531-.003906-.007813-.007812-.019532-.011719-.027344-1.601562-7.238282-8.347656-12.351563-15.9375-11.6875-4.613281.402344-8.804687 2.921875-11.320312 6.8125-4.039062 6.253906-1.941406 12.253906-1.042969 14.816406.808594 2.3125 2.308594 6.601562 3.5625 12.992188.210938 1.246093.46875 2.496093.738281 3.726562.066407 1.460938.1875 2.980469.371094 4.597656.011719.101563.023438.199219.035156.296875l.226563 1.726563c-.023437.53125-.042969 1.066406-.039063 1.625-.027343 1.769531.019532 3.675781.140626 5.917968-.589844 7.90625-1.734376 15.421876-3.410157 22.363282-2.195312 7.128906-5.21875 14.519531-8.78125 21.472656-1.171875 1.648438-2.304687 3.371094-3.375 5.144531-.332031.527344-.65625 1.085938-.976562 1.652344-.003907.007813-.007813.015625-.011719.019531-.355469.410156-.710938.816406-1.0625 1.21875-.097656.113282-.195312.226563-.289062.34375-1.0625 1.292969-2.136719 2.6875-3.207032 4.164063-.894531.816406-1.878906 1.742187-2.875 2.761719-.898437.851562-1.605468 1.65625-2.152344 2.28125-1.171874.816406-2.355468 1.695312-3.519531 2.617187-.621093.492187-1.25 1.007813-1.882812 1.539063v33.226562l.175781-.078125c1.488281-.605469 2.523438-.953125 3.070312-1.125zm0 0"/><path d="m178.511719 451.464844c.269531-.050782.535156-.113282.800781-.183594.25-.0625.496094-.128906.742188-.203125.238281-.070313.476562-.152344.714843-.238281.269531-.097656.53125-.199219.792969-.3125.121094-.050782.246094-.089844.367188-.144532.023437-.011718 2.699218-1.234374 7.136718-2.957031l4.089844-1.523437c.871094-.328125 1.710938-.730469 2.507812-1.214844 1.394532-.847656 2.898438-1.757812 4.503907-2.734375l4.71875-2.640625c2.597656-1.328125 4.566406-2.984375 6.027343-4.214844.390626-.328125.925782-.777344 1.128907-.917968.121093-.089844.246093-.175782.367187-.269532l5.910156-4.417968c.664063-.492188 1.285157-1.042969 1.855469-1.640626 1.804688-1.882812 3.601563-3.6875 5.351563-5.363281l2.957031-2.765625c.21875-.203125.433594-.414062.636719-.632812 1.132812-1.1875 2.03125-2.351563 2.75-3.285156.246094-.316407.492187-.640626.742187-.941407.082031-.09375.160157-.1875.234375-.285156 1.734375-2.164063 3.550782-4.324219 5.398438-6.417969.375-.425781.730468-.875 1.054687-1.339844 8.226563-11.769531 15.554688-25.082031 21.195313-38.5.078125-.179687.152344-.359374.21875-.542968 4.9375-13.148438 8.828125-27.503906 11.570312-42.667969.078125-.429687.136719-.859375.175782-1.292969.324218-3.507812.648437-6.460937.988281-9.019531.015625-.105469.027343-.210937.039062-.320313.046875-.4375.113281-.855468.179688-1.277343.15625-1.039063.351562-2.332031.453125-3.828125.015625-.207032.023437-.417969.027344-.625l.121093-4.46875c.09375-2.59375.246094-5.144532.445313-7.578125.050781-.625.0625-1.253907.035156-1.878907l-.070312-1.546874c-.09375-2.121094-.1875-4.121094-.214844-5.910157-.003906-.191406-.011719-.382812-.023438-.574219-.023437-.472656-.015625-1.101562-.003906-1.828124.023438-1.625.054688-3.835938-.308594-6.34375-.238281-1.898438-.441406-3.785157-.605468-5.621094-.152344-1.621094-.273438-3.242188-.363282-4.824219-.035156-.664063-.117187-1.324219-.242187-1.976563l-.210938-1.101562c-.234375-1.222656-.453125-2.367188-.660156-3.429688-.816406-4.539062-1.117187-7.105468-1.136719-7.285156-.023437-.1875-.0625-.367187-.089844-.554687-.042968-.289063-.078124-.574219-.136718-.863281-.054688-.246094-.125-.488282-.1875-.734376-.054688-.214843-.097656-.425781-.160156-.640624-.011719-.027344-.820313-2.6875-1.859376-7.03125l-.886718-4.019532c-.171875-.769531-.402344-1.519531-.691406-2.25-.515626-1.3125-1.019532-2.671875-1.5-4.035156-.511719-1.457031-.960938-2.820312-1.363282-4.164062-.6875-2.535157-1.710937-4.53125-2.398437-5.875-.144531-.28125-.296875-.558594-.40625-.808594-.097657-.242188-.199219-.484375-.308594-.722656-.671875-1.464844-1.355469-3.171876-2.019531-4.820313-.34375-.859375-.769532-1.6875-1.265625-2.46875-.898438-1.40625-1.734375-2.828125-2.496094-4.222656l-1.324219-2.59375c-.152344-.296875-.3125-.585938-.484375-.871094-.800781-1.339844-1.609375-2.367187-2.144531-3.050781-.09375-.121094-.1875-.238282-.230469-.289063-.085937-.125-.175781-.25-.265625-.371093-.925781-1.253907-1.796875-2.5625-2.660156-3.988282-.417969-.6875-.886719-1.339844-1.40625-1.953125-6.371094-7.496093-13.0625-13.664062-19.886719-18.335937-.394531-.269532-.800781-.519532-1.21875-.75-6.980469-3.855469-14.53125-6.425782-22.449219-7.648438-1.441406-.222656-2.914062-.234375-4.363281-.03125-.851562.117188-1.234375.140625-1.324219.125-.9375-.097656-2.671874-.222656-4.78125.125-.59375.097656-1.183593.230469-1.761718.398438l-1.488282.441406c-.015624.003906-.027343.003906-.035156.007812-2.089844.097657-4.140625.628907-6.011718 1.566407l-.109376.058593c-.480468.238282-1.128906.5625-1.390624.675782-.265626.097656-.527344.203125-.785157.3125-1.980469.863281-3.75 1.785156-5.355469 2.695312v33.125c3.070313-.007812 6.625-1.027344 10.433594-4.027344 1.316406-1.035156 3.496094-2.753906 6.625-4.164062.539063-.210938 1.050782-.429688 1.546875-.652344.859375-.148437 1.730469-.332031 2.625-.558594.015625-.003906.027344-.007812.039063-.011718 1.066406.023437 2.179687-.023438 3.351562-.117188 3.539063.71875 6.933594 1.929688 10.113282 3.605469 4.140624 2.925781 8.484374 6.964844 12.648437 11.75 1.089844 1.742187 2.230469 3.425781 3.402344 5.023437.363281.511719.746093 1.011719 1.136719 1.507813l.929687 1.8125c.054687.105469.105469.210937.164063.3125.894531 1.65625 1.863281 3.324219 2.882812 4.980469.59375 1.46875 1.246094 3.042968 1.960938 4.617187.496093 1.199219 1.015624 2.214844 1.40625 2.976563.101562.195312.207031.390625.300781.589844.558593 1.871093 1.167969 3.75 1.871093 5.742187.464844 1.320313.949219 2.644531 1.449219 3.941406l.667969 3.023438c.019531.070312.035156.144531.050781.21875.839844 3.53125 1.566407 6.164062 1.992188 7.660156.203125 1.535156.597656 4.25 1.28125 8.042969.011719.0625.023437.132812.035156.199218l.695313 3.601563c.101562 1.601563.226562 3.222656.375 4.832031.199218 2.21875.449218 4.503906.738281 6.800782.015625.136718.027343.210937.046875.351562.027344.261719.015625 1.0625.007812 1.644531-.015625 1-.03125 2.222657.035156 3.617188.039063 2.117187.132813 4.238281.234376 6.480469l.027343.597656c-.199219 2.609375-.351562 5.308594-.449219 8.039062-.003906.050782-.003906.101563-.003906.152344l-.109375 4.105469c-.035156.308593-.105469.765625-.171875 1.214843-.113281.742188-.222656 1.488282-.3125 2.253907-.363281 2.761719-.703125 5.847656-1.039062 9.414062-2.394532 13.058594-5.730469 25.351563-9.921875 36.566407-4.707031 11.144531-10.765625 22.1875-17.550781 32.003906-1.9375 2.207031-3.832032 4.472656-5.65625 6.746094-.46875.566406-.933594 1.160156-1.390626 1.753906-.203124.261718-.460937.59375-.625.800781l-2.539062 2.371094c-.046875.042969-.09375.085937-.140625.128906-1.789063 1.71875-3.617187 3.539063-5.445313 5.429687l-4.769531 3.5625c-1.191406.851563-2.199219 1.699219-3.019531 2.386719-.269531.226563-.613281.519531-.847656.707031-.058594.03125-.121094.0625-.179688.097657l-5.285156 2.957031c-.160156.089844-.316406.179688-.46875.273438-1.21875.742187-2.382812 1.445312-3.480469 2.113281l-2.839843 1.058593c-.0625.023438-.121094.046876-.179688.070313-.953125.367187-1.832031.714844-2.648438 1.046875v31.578125c1.632813-.351563 2.53125-.515625 2.582032-.523437.09375-.015626.175781-.042969.265625-.058594zm0 0"/></g></svg>