<svg id="Capa_1" enable-background="new 0 0 511.996 511.996" height="512" viewBox="0 0 511.996 511.996" width="512" xmlns="http://www.w3.org/2000/svg"><g><path d="m411.309 442.365h62.125v31.062h-62.125z" fill="#356487"/><path d="m411.309 442.365h20v31.062h-20z" fill="#20526b"/><path d="m38.562 442.365h62.125v31.062h-62.125z" fill="#356487"/><path d="m38.562 442.365h20v31.062h-20z" fill="#20526b"/><path d="m7.5 411.312h155.311v31.053h-155.311z" fill="#e2ae83"/><path d="m7.5 411.272h30v31.093h-30z" fill="#d39c72"/><path d="m7.5 380.225h155.311v31.093h-155.311z" fill="#c48960"/><path d="m7.5 380.225h30v31.093h-30z" fill="#b77c55"/><path d="m7.5 349.163h155.311v31.055h-155.311z" fill="#e2ae83"/><path d="m7.5 349.163h30v31.065h-30z" fill="#d39c72"/><path d="m162.811 349.178h186.374v93.187h-186.374z" fill="#c48960"/><path d="m162.811 349.178h30v93.187h-30z" fill="#b77c55"/><path d="m349.185 411.272h155.311v31.093h-155.311z" fill="#e2ae83"/><path d="m349.185 411.272h30v31.093h-30z" fill="#d39c72"/><path d="m349.185 380.225h155.311v31.093h-155.311z" fill="#c48960"/><path d="m349.185 380.225h30v31.093h-30z" fill="#b77c55"/><path d="m349.185 349.249h155.311v30.958h-155.311z" fill="#e2ae83"/><path d="m349.185 349.187h30v31.069h-30z" fill="#d39c72"/><path d="m131.749 318.131h248.498v31.047h-248.498z" fill="#356487"/><path d="m131.749 318.131h30v31.047h-30z" fill="#20526b"/><path d="m224.936 287.069h62.125v31.062h-62.125z" fill="#20526b"/><path d="m38.562 38.571h434.872v248.498h-434.872z" fill="#356487"/><path d="m38.562 38.571h31.062v248.498h-31.062z" fill="#20526b"/><path d="m69.625 69.633h372.747v186.374h-372.747z" fill="#01d0fb"/><path d="m69.625 69.633h20v186.374h-20z" fill="#08a9f1"/><g><path d="m504.496 341.663h-116.749v-23.532c0-4.142-3.357-7.5-7.5-7.5h-85.687v-16.062h178.878c4.143 0 7.5-3.358 7.5-7.5v-248.5c0-4.142-3.357-7.5-7.5-7.5h-105.14c-4.143 0-7.5 3.358-7.5 7.5s3.357 7.5 7.5 7.5h97.641v233.5h-419.881v-233.5h289.551c4.143 0 7.5-3.358 7.5-7.5s-3.357-7.5-7.5-7.5h-297.051c-4.143 0-7.5 3.358-7.5 7.5v248.5c0 4.142 3.357 7.5 7.5 7.5h178.878v16.062h-85.687c-4.143 0-7.5 3.358-7.5 7.5v23.532h-116.749c-4.143 0-7.5 3.358-7.5 7.5v93.202c0 4.142 3.357 7.5 7.5 7.5h23.562v23.562c0 4.142 3.357 7.5 7.5 7.5h62.124c4.143 0 7.5-3.358 7.5-7.5v-23.562l131.422.004c4.143 0 7.5-3.358 7.5-7.5s-3.357-7.5-7.5-7.5h-69.297v-78.19h171.373v78.19h-69.387c-4.143 0-7.5 3.358-7.5 7.5s3.357 7.5 7.5 7.5l131.512-.004v23.562c0 4.142 3.357 7.5 7.5 7.5h62.124c4.143 0 7.5-3.358 7.5-7.5v-23.562h23.562c4.143 0 7.5-3.358 7.5-7.5v-93.202c.001-4.142-3.356-7.5-7.499-7.5zm-489.496 46.093h140.308v16.016h-140.308zm341.688 16.016v-16.016h140.308v16.016zm140.308-31.047h-140.308v-16.047l140.308-.015zm-264.56-78.156h47.125v16.062h-47.125zm-93.187 31.062h233.498v16.032h-233.498zm16.059 31.047v16.047h-140.308v-16.062zm-140.308 62.14h140.308v16.047h-140.308zm78.187 47.109h-47.125v-16.062h47.124v16.062zm372.747 0h-47.124v-16.062h47.124zm-109.246-31.062v-16.047h140.308v16.047z"/><path d="m69.628 194.139c-4.143 0-7.5 3.358-7.5 7.5v54.37c0 4.142 3.357 7.5 7.5 7.5h372.74c4.143 0 7.5-3.358 7.5-7.5v-186.38c0-4.142-3.357-7.5-7.5-7.5h-372.74c-4.143 0-7.5 3.358-7.5 7.5v99.32c0 4.142 3.357 7.5 7.5 7.5s7.5-3.358 7.5-7.5v-91.82h357.74v171.38h-357.74v-46.87c0-4.142-3.357-7.5-7.5-7.5z"/></g></g></svg>